<svg xmlns="http://www.w3.org/2000/svg" width="375" viewBox="0 0 375 375" height="375" version="1.0"><defs><clipPath id="a"><path d="M 37.5 157 L 110.25 157 L 110.25 225.957031 L 37.5 225.957031 Z M 37.5 157"/></clipPath><clipPath id="b"><path d="M 150.964844 157 L 223.714844 157 L 223.714844 225.957031 L 150.964844 225.957031 Z M 150.964844 157"/></clipPath><clipPath id="c"><path d="M 264.429688 157 L 337.179688 157 L 337.179688 225.957031 L 264.429688 225.957031 Z M 264.429688 157"/></clipPath></defs><g clip-path="url(#a)"><path d="M 37.425781 176.3125 C 37.425781 156.246094 65.210938 148.808594 73.761719 172.039062 C 82.3125 148.808594 110.097656 156.246094 110.097656 176.3125 C 110.097656 198.117188 73.761719 225.765625 73.761719 225.765625 C 73.761719 225.765625 37.425781 198.117188 37.425781 176.3125 Z M 37.425781 176.3125"/></g><g clip-path="url(#b)"><path d="M 150.890625 176.3125 C 150.890625 156.246094 178.675781 148.808594 187.226562 172.039062 C 195.773438 148.808594 223.5625 156.246094 223.5625 176.3125 C 223.5625 198.117188 187.226562 225.765625 187.226562 225.765625 C 187.226562 225.765625 150.890625 198.117188 150.890625 176.3125 Z M 150.890625 176.3125"/></g><g clip-path="url(#c)"><path d="M 264.355469 176.3125 C 264.355469 156.246094 292.140625 148.808594 300.691406 172.039062 C 309.238281 148.808594 337.027344 156.246094 337.027344 176.3125 C 337.027344 198.117188 300.691406 225.765625 300.691406 225.765625 C 300.691406 225.765625 264.355469 198.117188 264.355469 176.3125 Z M 264.355469 176.3125"/></g></svg>