<svg xmlns="http://www.w3.org/2000/svg" width="375" viewBox="0 0 375 375" height="375" version="1.0"><path fill="#231F20" d="M 116.402344 315.074219 C 116.09375 314.417969 86.65625 249.542969 165.714844 199.644531 C 168.398438 198.011719 175.886719 192.382812 175.886719 187.546875 C 175.886719 183.035156 169.078125 177.476562 165.785156 175.488281 C 86.65625 125.554688 116.09375 60.679688 116.402344 60.023438 L 123.332031 63.296875 C 122.210938 65.691406 96.636719 122.804688 169.816406 168.976562 C 171.164062 169.785156 183.550781 177.546875 183.550781 187.546875 C 183.550781 197.550781 171.164062 205.3125 169.757812 206.15625 C 96.636719 252.292969 122.210938 309.40625 123.34375 311.8125 L 116.402344 315.074219"/><path fill="#231F20" d="M 109.75 57.832031 L 265.292969 57.832031 L 265.292969 46.75 C 265.292969 44.582031 263.527344 42.808594 261.359375 42.808594 L 113.683594 42.808594 C 111.515625 42.808594 109.75 44.582031 109.75 46.75 Z M 272.972656 65.488281 L 102.070312 65.488281 L 102.070312 46.75 C 102.070312 40.355469 107.28125 35.152344 113.683594 35.152344 L 261.359375 35.152344 C 267.761719 35.152344 272.972656 40.355469 272.972656 46.75 L 272.972656 65.488281"/><path fill="#231F20" d="M 109.75 317.265625 L 109.75 328.347656 C 109.75 330.515625 111.515625 332.289062 113.683594 332.289062 L 261.359375 332.289062 C 263.527344 332.289062 265.292969 330.515625 265.292969 328.347656 L 265.292969 317.265625 Z M 261.359375 339.945312 L 113.683594 339.945312 C 107.28125 339.945312 102.070312 334.742188 102.070312 328.347656 L 102.070312 309.609375 L 272.972656 309.609375 L 272.972656 328.347656 C 272.972656 334.742188 267.761719 339.945312 261.359375 339.945312"/><path fill="#231F20" d="M 258.640625 315.074219 L 251.714844 311.800781 L 255.183594 313.429688 L 251.703125 311.8125 C 252.832031 309.40625 278.40625 252.292969 205.226562 206.121094 C 203.878906 205.3125 191.492188 197.550781 191.492188 187.546875 C 191.492188 177.546875 203.878906 169.785156 205.296875 168.9375 C 278.40625 122.804688 252.832031 65.691406 251.703125 63.285156 L 258.640625 60.023438 C 258.949219 60.679688 288.386719 125.554688 209.328125 175.453125 C 206.644531 177.082031 199.171875 182.714844 199.171875 187.546875 C 199.171875 192.0625 205.964844 197.621094 209.257812 199.609375 C 288.386719 249.542969 258.949219 314.417969 258.640625 315.074219"/><path fill="#231F20" d="M 245.871094 278.6875 C 245.585938 278.6875 245.285156 278.652344 245 278.582031 C 207.609375 269.890625 167.742188 269.878906 130.351562 278.582031 C 128.289062 279.058594 126.226562 277.773438 125.75 275.710938 C 125.261719 273.652344 126.550781 271.59375 128.613281 271.117188 C 167.132812 262.164062 208.207031 262.164062 246.742188 271.128906 C 248.804688 271.605469 250.078125 273.664062 249.601562 275.722656 C 249.183594 277.484375 247.613281 278.6875 245.871094 278.6875"/><path fill="#231F20" d="M 187.523438 167.511719 L 184.515625 163.734375 C 181.132812 159.472656 176.828125 156.675781 175.585938 155.925781 C 154.269531 142.449219 141.429688 126.292969 137.351562 107.863281 C 136.898438 105.800781 138.199219 103.753906 140.273438 103.300781 C 142.347656 102.835938 144.386719 104.148438 144.839844 106.21875 C 148.453125 122.578125 160.171875 137.113281 179.640625 149.414062 C 181.082031 150.292969 184.289062 152.414062 187.523438 155.628906 C 190.765625 152.414062 193.984375 150.28125 195.460938 149.390625 C 214.894531 137.101562 226.617188 122.542969 230.214844 106.171875 C 230.679688 104.109375 232.707031 102.789062 234.78125 103.253906 C 236.859375 103.707031 238.167969 105.753906 237.714844 107.8125 C 233.636719 126.269531 220.796875 142.4375 199.503906 155.890625 C 198.214844 156.675781 193.914062 159.460938 190.527344 163.734375 L 187.523438 167.511719"/></svg>