<svg xmlns="http://www.w3.org/2000/svg" width="144.75" viewBox="0 0 144.75 144.75" height="144.75" version="1.0"><defs><clipPath id="a"><path d="M 2.3125 0 L 142.5625 0 L 142.5625 144.5 L 2.3125 144.5 Z M 2.3125 0"/></clipPath></defs><path d="M 72.453125 17.589844 C 102.675781 17.589844 127.320312 42.234375 127.320312 72.453125 C 127.320312 102.675781 102.675781 127.320312 72.453125 127.320312 C 42.234375 127.320312 17.585938 102.675781 17.585938 72.453125 C 17.585938 42.234375 42.234375 17.589844 72.453125 17.589844 Z M 72.453125 19.804688 C 101.453125 19.804688 125.105469 43.457031 125.105469 72.453125 C 125.105469 101.453125 101.453125 125.105469 72.453125 125.105469 C 43.457031 125.105469 19.804688 101.453125 19.804688 72.453125 C 19.804688 43.457031 43.457031 19.804688 72.453125 19.804688 Z M 72.453125 21.746094 C 100.386719 21.746094 123.164062 44.523438 123.164062 72.453125 C 123.164062 100.386719 100.386719 123.164062 72.453125 123.164062 C 44.523438 123.164062 21.746094 100.386719 21.746094 72.453125 C 21.746094 44.523438 44.523438 21.746094 72.453125 21.746094 Z M 72.453125 23.40625 C 99.46875 23.40625 121.5 45.441406 121.5 72.453125 C 121.5 99.46875 99.46875 121.5 72.453125 121.5 C 45.441406 121.5 23.40625 99.46875 23.40625 72.453125 C 23.40625 45.441406 45.441406 23.40625 72.453125 23.40625 Z M 32.363281 96.15625 L 31.929688 96.589844 C 18.683594 74.023438 25.675781 41.925781 53 29.484375 L 53 34.960938 L 52.996094 34.964844 L 52.765625 115.316406 C 51.203125 114.59375 49.679688 113.789062 48.199219 112.90625 L 48.199219 78.742188 L 30.953125 78.742188 C 31.753906 83.980469 33.472656 89.070312 36.046875 93.699219 C 34.8125 94.519531 33.628906 95.363281 32.363281 96.15625 Z M 48.199219 74.523438 L 48.199219 37.851562 C 35.226562 46.792969 29.730469 60.855469 30.511719 74.523438 Z M 70.601562 119.574219 C 70.125 119.558594 69.644531 119.535156 69.167969 119.503906 C 69.144531 119.5 69.121094 119.5 69.097656 119.496094 L 69.089844 119.496094 C 68.972656 119.488281 68.855469 119.480469 68.738281 119.472656 C 68.710938 119.472656 68.6875 119.46875 68.664062 119.464844 L 68.648438 119.464844 C 64.105469 119.113281 59.714844 118.113281 55.46875 116.460938 L 55.46875 111.375 L 55.539062 28.410156 C 58.699219 27.207031 61.949219 26.347656 65.289062 25.832031 L 65.289062 25.828125 C 66.773438 25.597656 68.269531 25.4375 69.769531 25.351562 C 71.308594 27.933594 72.695312 30.917969 73.769531 33.953125 C 75.304688 38.292969 76.222656 42.789062 76.082031 46.453125 C 75.914062 50.742188 74.816406 54.574219 73.109375 58.035156 C 71.855469 60.582031 70.285156 62.90625 68.515625 65.058594 C 71.378906 68.417969 73.921875 72.09375 75.820312 76.1875 C 77.847656 80.558594 79.148438 85.386719 79.347656 90.800781 C 79.515625 95.429688 78.421875 101.121094 76.589844 106.621094 C 75.03125 111.300781 72.921875 115.878906 70.601562 119.574219 Z M 68.808594 114.605469 C 70.304688 111.792969 71.65625 108.609375 72.742188 105.351562 C 74.429688 100.28125 75.441406 95.085938 75.292969 90.945312 C 75.113281 86.097656 73.953125 81.78125 72.144531 77.882812 C 70.445312 74.222656 68.171875 70.914062 65.605469 67.875 L 60.394531 67.875 L 60.394531 113.113281 C 63.148438 113.898438 65.953125 114.398438 68.808594 114.605469 Z M 60.394531 63.816406 L 64.242188 63.816406 C 66.308594 61.5 68.128906 58.996094 69.484375 56.246094 C 70.945312 53.28125 71.882812 50 72.023438 46.308594 C 72.148438 43.148438 71.324219 39.179688 69.953125 35.296875 C 69.367188 33.648438 68.695312 32.035156 67.933594 30.460938 C 65.375 30.726562 62.859375 31.226562 60.394531 31.960938 Z M 85.777344 117.585938 L 85.777344 38.171875 L 96.097656 53.464844 L 96.097656 113.105469 C 97.792969 112.101562 99.433594 111.015625 101.019531 109.84375 L 101.019531 34.953125 C 99.417969 33.773438 97.777344 32.648438 96.097656 31.574219 L 96.097656 43.132812 L 85.253906 27.015625 C 83.726562 26.605469 82.179688 26.265625 80.617188 25.996094 L 80.617188 118.871094 C 82.339844 118.523438 84.058594 118.113281 85.777344 117.585938 Z M 113.597656 63.644531 C 113.082031 61.039062 112.328125 58.503906 111.34375 56.039062 L 111.34375 99.125 C 109.875 101.269531 108.230469 103.269531 106.417969 105.128906 L 106.417969 47.128906 C 105.40625 45.746094 104.3125 44.433594 103.132812 43.191406 L 103.132812 36.660156 C 110.839844 43.277344 116.398438 52.328125 118.597656 62.601562 Z M 113.597656 63.644531" fill-rule="evenodd"/><g clip-path="url(#a)" fill="none" stroke="#F00"><path transform="matrix(.7288 0 0 .75144 -101.313 -87.827)" d="M 324.449617 213.012014 C 324.454977 214.373988 324.428178 215.741161 324.363861 217.108334 C 324.304903 218.470308 324.208427 219.832282 324.074433 221.194256 C 323.940439 222.556231 323.774286 223.913006 323.575974 225.264584 C 323.372303 226.616161 323.136473 227.96254 322.868484 229.303721 C 322.600496 230.644902 322.294989 231.980884 321.957323 233.30647 C 321.619657 234.632055 321.249833 235.952442 320.842491 237.257235 C 320.440508 238.567225 320.001006 239.866819 319.529346 241.156016 C 319.057686 242.445213 318.553868 243.718814 318.017891 244.98202 C 317.481913 246.250423 316.913778 247.498033 316.318843 248.735246 C 315.718548 249.972459 315.086095 251.194078 314.426843 252.4001 C 313.762232 253.611322 313.070821 254.80175 312.347252 255.971384 C 311.623683 257.146217 310.873315 258.305454 310.090788 259.443898 C 309.313621 260.582342 308.498936 261.699993 307.662811 262.802049 C 306.826687 263.898906 305.958404 264.980168 305.068681 266.035438 C 304.173599 267.095906 303.251719 268.130383 302.308399 269.149264 C 301.359719 270.162947 300.3896 271.155837 299.392683 272.122735 C 298.395765 273.089632 297.377409 274.035737 296.332253 274.955849 C 295.287097 275.875961 294.220503 276.770082 293.132469 277.63821 C 292.039076 278.506339 290.929603 279.348476 289.793331 280.164621 C 288.662419 280.980765 287.510068 281.770918 286.336278 282.529881 C 285.162488 283.294042 283.972619 284.027013 282.76131 284.728794 C 281.550002 285.435773 280.322614 286.106363 279.079147 286.75616 C 277.83568 287.400758 276.570773 288.014167 275.295148 288.601583 C 274.019522 289.188999 272.733177 289.745225 271.425392 290.265063 C 270.122968 290.790099 268.804464 291.283944 267.47524 291.7466 C 266.146017 292.209255 264.806074 292.635522 263.455411 293.035797 C 262.104749 293.430873 260.743367 293.799958 259.371265 294.132654 C 257.999163 294.46535 256.621702 294.766855 255.238881 295.031973 C 253.8507 295.29709 252.462519 295.536215 251.063618 295.733753 C 249.670077 295.93649 248.265817 296.102838 246.861557 296.237996 C 245.451937 296.373153 244.047677 296.471922 242.632697 296.539501 C 241.223077 296.60708 239.813457 296.643469 238.398477 296.643469 C 236.988857 296.643469 235.573877 296.60708 234.164257 296.539501 C 232.754637 296.471922 231.345017 296.373153 229.940757 296.237996 C 228.536496 296.102838 227.132236 295.93649 225.733335 295.733753 C 224.339795 295.536215 222.946254 295.29709 221.563433 295.031973 C 220.175252 294.766855 218.79779 294.46535 217.431049 294.132654 C 216.058947 293.799958 214.697565 293.430873 213.346902 293.035797 C 211.99624 292.635522 210.656297 292.209255 209.327073 291.7466 C 207.99785 291.283944 206.679346 290.790099 205.371561 290.265063 C 204.069137 289.745225 202.777432 289.188999 201.501806 288.601583 C 200.22618 288.014167 198.966634 287.400758 197.723167 286.75616 C 196.47434 286.106363 195.246952 285.435773 194.041003 284.728794 C 192.829695 284.027013 191.634466 283.294042 190.460676 282.529881 C 189.292245 281.770918 188.134535 280.980765 187.003623 280.164621 C 185.872711 279.348476 184.757878 278.506339 183.669844 277.63821 C 182.581811 276.770082 181.509856 275.875961 180.47006 274.955849 C 179.424905 274.035737 178.401188 273.089632 177.404271 272.122735 C 176.407353 271.155837 175.437235 270.162947 174.493915 269.149264 C 173.545235 268.130383 172.628714 267.095906 171.733632 266.035438 C 170.83855 264.980168 169.975627 263.898906 169.134143 262.802049 C 168.298018 261.699993 167.488693 260.582342 166.706166 259.443898 C 165.923639 258.305454 165.173271 257.146217 164.449702 255.971384 C 163.731492 254.80175 163.040082 253.611322 162.37547 252.4001 C 161.716218 251.194078 161.083765 249.972459 160.483471 248.735246 C 159.883176 247.498033 159.31504 246.250423 158.779063 244.98202 C 158.243086 243.718814 157.739267 242.445213 157.272967 241.156016 C 156.801307 239.866819 156.361806 238.567225 155.954463 237.257235 C 155.55248 235.952442 155.182656 234.632055 154.84499 233.30647 C 154.507325 231.980884 154.201818 230.644902 153.933829 229.303721 C 153.660481 227.96254 153.424651 226.616161 153.226339 225.264584 C 153.022668 223.913006 152.856515 222.556231 152.72788 221.194256 C 152.593886 219.832282 152.49741 218.470308 152.433093 217.108334 C 152.368776 215.741161 152.341977 214.373988 152.347337 213.012014 C 152.341977 211.644842 152.368776 210.277669 152.433093 208.915695 C 152.49741 207.548522 152.593886 206.186548 152.72788 204.824574 C 152.856515 203.4626 153.022668 202.111022 153.226339 200.754246 C 153.424651 199.402669 153.660481 198.05629 153.933829 196.715109 C 154.201818 195.373928 154.507325 194.043144 154.84499 192.712361 C 155.182656 191.386775 155.55248 190.071586 155.954463 188.761596 C 156.361806 187.451605 156.801307 186.152011 157.272967 184.862814 C 157.739267 183.578816 158.243086 182.300016 158.779063 181.036811 C 159.31504 179.773606 159.883176 178.520797 160.483471 177.283584 C 161.083765 176.046371 161.716218 174.824753 162.37547 173.61873 C 163.040082 172.412707 163.731492 171.222279 164.449702 170.047446 C 165.173271 168.872613 165.923639 167.713376 166.706166 166.574932 C 167.488693 165.436488 168.298018 164.318837 169.134143 163.22198 C 169.975627 162.119925 170.83855 161.043861 171.733632 159.983392 C 172.628714 158.922924 173.545235 157.888447 174.493915 156.874764 C 175.437235 155.855883 176.407353 154.868192 177.404271 153.896096 C 178.401188 152.929198 179.424905 151.983094 180.47006 151.06818 C 181.509856 150.148067 182.581811 149.253947 183.669844 148.38062 C 184.757878 147.512491 185.872711 146.670355 187.003623 145.85421 C 188.134535 145.038065 189.292245 144.247912 190.460676 143.488949 C 191.634466 142.729986 192.829695 141.997016 194.041003 141.290037 C 195.246952 140.588256 196.47434 139.912467 197.723167 139.267869 C 198.966634 138.618072 200.22618 138.004664 201.501806 137.417247 C 202.777432 136.829831 204.069137 136.278803 205.371561 135.753767 C 206.679346 135.228731 207.99785 134.734886 209.327073 134.272231 C 210.656297 133.809575 211.99624 133.383308 213.346902 132.983034 C 214.697565 132.587957 216.058947 132.218872 217.431049 131.886176 C 218.79779 131.55348 220.175252 131.257173 221.563433 130.986858 C 222.946254 130.72174 224.339795 130.487814 225.733335 130.285077 C 227.132236 130.08234 228.536496 129.915992 229.940757 129.780835 C 231.345017 129.645677 232.754637 129.546908 234.164257 129.479329 C 235.573877 129.41175 236.988857 129.38056 238.398477 129.38056 C 239.813457 129.38056 241.223077 129.41175 242.632697 129.479329 C 244.047677 129.546908 245.451937 129.645677 246.861557 129.780835 C 248.265817 129.915992 249.670077 130.08234 251.063618 130.285077 C 252.462519 130.487814 253.8507 130.72174 255.238881 130.986858 C 256.621702 131.257173 257.999163 131.55348 259.371265 131.886176 C 260.743367 132.218872 262.104749 132.587957 263.455411 132.983034 C 264.806074 133.383308 266.146017 133.809575 267.47524 134.272231 C 268.804464 134.734886 270.122968 135.228731 271.425392 135.753767 C 272.733177 136.278803 274.019522 136.829831 275.295148 137.417247 C 276.570773 138.004664 277.83568 138.618072 279.079147 139.267869 C 280.322614 139.912467 281.550002 140.588256 282.76131 141.290037 C 283.972619 141.997016 285.162488 142.729986 286.336278 143.488949 C 287.510068 144.247912 288.662419 145.038065 289.793331 145.85421 C 290.929603 146.670355 292.039076 147.512491 293.132469 148.38062 C 294.220503 149.253947 295.287097 150.148067 296.332253 151.06818 C 297.377409 151.983094 298.395765 152.929198 299.392683 153.896096 C 300.3896 154.868192 301.359719 155.855883 302.308399 156.874764 C 303.251719 157.888447 304.173599 158.922924 305.068681 159.983392 C 305.958404 161.043861 306.826687 162.119925 307.662811 163.22198 C 308.498936 164.318837 309.313621 165.436488 310.090788 166.574932 C 310.873315 167.713376 311.623683 168.872613 312.347252 170.047446 C 313.070821 171.222279 313.762232 172.412707 314.426843 173.61873 C 315.086095 174.824753 315.718548 176.046371 316.318843 177.283584 C 316.913778 178.520797 317.481913 179.773606 318.017891 181.036811 C 318.553868 182.300016 319.057686 183.578816 319.529346 184.862814 C 320.001006 186.152011 320.440508 187.451605 320.842491 188.761596 C 321.249833 190.071586 321.619657 191.386775 321.957323 192.712361 C 322.294989 194.043144 322.600496 195.373928 322.868484 196.715109 C 323.136473 198.05629 323.372303 199.402669 323.575974 200.754246 C 323.774286 202.111022 323.940439 203.4626 324.074433 204.824574 C 324.208427 206.186548 324.304903 207.548522 324.363861 208.915695 C 324.428178 210.277669 324.454977 211.644842 324.449617 213.012014 Z M 324.449617 213.012014" stroke-width="20"/><path transform="matrix(.14025 0 0 .13986 2.312 2.306)" d="M 166.839221 166.835859 L 833.17174 833.160902" stroke-width="100"/></g></svg>