<svg xmlns="http://www.w3.org/2000/svg" xmlns:xlink="http://www.w3.org/1999/xlink" width="375" viewBox="0 0 375 375" height="375" version="1.0"><defs><g id="d"><path d="M 14.890625 -41.390625 L 24.078125 -41.390625 C 27.171875 -41.390625 29.71875 -41.796875 31.71875 -42.609375 C 33.726562 -43.421875 35.332031 -44.421875 36.53125 -45.609375 C 37.726562 -46.804688 38.570312 -48.144531 39.0625 -49.625 C 39.5625 -51.101562 39.8125 -52.515625 39.8125 -53.859375 C 39.8125 -55.398438 39.40625 -56.890625 38.59375 -58.328125 C 37.78125 -59.773438 36.6875 -61.046875 35.3125 -62.140625 C 33.945312 -63.234375 32.296875 -64.09375 30.359375 -64.71875 C 28.421875 -65.351562 26.363281 -65.671875 24.1875 -65.671875 L 14.890625 -65.671875 Z M 6.125 0 L 6.125 -73.921875 L 23.546875 -73.921875 C 25.941406 -73.921875 28.597656 -73.550781 31.515625 -72.8125 C 34.441406 -72.070312 37.171875 -70.890625 39.703125 -69.265625 C 42.234375 -67.648438 44.34375 -65.570312 46.03125 -63.03125 C 47.726562 -60.5 48.578125 -57.441406 48.578125 -53.859375 C 48.578125 -48.578125 47.253906 -44.15625 44.609375 -40.59375 C 41.972656 -37.039062 38.117188 -34.703125 33.046875 -33.578125 L 48.890625 0 L 39.390625 0 L 23.859375 -32.9375 L 14.890625 -32.9375 L 14.890625 0 Z M 6.125 0"/></g><g id="e"><path d="M 58.390625 -73.921875 L 58.390625 -65.578125 L 33.6875 -65.578125 L 33.6875 0 L 24.921875 0 L 24.921875 -65.578125 L 0 -65.578125 L 0 -73.921875 Z M 58.390625 -73.921875"/></g><g id="f"><path d="M 1.234375 0 L 1.234375 -12.453125 L 8.890625 -12.453125 L 8.890625 -11.046875 L 2.703125 -11.046875 L 2.703125 -6.96875 L 8.203125 -6.96875 L 8.203125 -5.5625 L 2.703125 -5.5625 L 2.703125 0 Z M 1.234375 0"/></g><g id="g"><path d="M 1.109375 -6.203125 C 1.109375 -7.066406 1.269531 -7.882812 1.59375 -8.65625 C 1.925781 -9.4375 2.378906 -10.117188 2.953125 -10.703125 C 3.535156 -11.285156 4.210938 -11.742188 4.984375 -12.078125 C 5.753906 -12.421875 6.578125 -12.59375 7.453125 -12.59375 C 8.316406 -12.59375 9.132812 -12.421875 9.90625 -12.078125 C 10.6875 -11.742188 11.363281 -11.285156 11.9375 -10.703125 C 12.519531 -10.117188 12.976562 -9.4375 13.3125 -8.65625 C 13.65625 -7.882812 13.828125 -7.066406 13.828125 -6.203125 C 13.828125 -5.328125 13.65625 -4.503906 13.3125 -3.734375 C 12.976562 -2.960938 12.519531 -2.289062 11.9375 -1.71875 C 11.363281 -1.144531 10.6875 -0.691406 9.90625 -0.359375 C 9.132812 -0.0234375 8.316406 0.140625 7.453125 0.140625 C 6.578125 0.140625 5.753906 -0.0234375 4.984375 -0.359375 C 4.210938 -0.691406 3.535156 -1.144531 2.953125 -1.71875 C 2.378906 -2.289062 1.925781 -2.960938 1.59375 -3.734375 C 1.269531 -4.503906 1.109375 -5.328125 1.109375 -6.203125 Z M 2.578125 -6.203125 C 2.578125 -5.515625 2.703125 -4.867188 2.953125 -4.265625 C 3.210938 -3.671875 3.5625 -3.148438 4 -2.703125 C 4.445312 -2.265625 4.96875 -1.914062 5.5625 -1.65625 C 6.15625 -1.394531 6.789062 -1.265625 7.46875 -1.265625 C 8.144531 -1.265625 8.78125 -1.394531 9.375 -1.65625 C 9.96875 -1.914062 10.484375 -2.265625 10.921875 -2.703125 C 11.367188 -3.148438 11.71875 -3.671875 11.96875 -4.265625 C 12.226562 -4.867188 12.359375 -5.515625 12.359375 -6.203125 C 12.359375 -6.890625 12.226562 -7.53125 11.96875 -8.125 C 11.71875 -8.726562 11.367188 -9.253906 10.921875 -9.703125 C 10.484375 -10.160156 9.96875 -10.519531 9.375 -10.78125 C 8.78125 -11.039062 8.144531 -11.171875 7.46875 -11.171875 C 6.789062 -11.171875 6.15625 -11.039062 5.5625 -10.78125 C 4.96875 -10.519531 4.445312 -10.160156 4 -9.703125 C 3.5625 -9.253906 3.210938 -8.726562 2.953125 -8.125 C 2.703125 -7.53125 2.578125 -6.890625 2.578125 -6.203125 Z M 2.578125 -6.203125"/></g><g id="h"><path d="M 2.5 -6.96875 L 4.046875 -6.96875 C 4.578125 -6.96875 5.007812 -7.035156 5.34375 -7.171875 C 5.675781 -7.304688 5.941406 -7.472656 6.140625 -7.671875 C 6.347656 -7.878906 6.492188 -8.109375 6.578125 -8.359375 C 6.660156 -8.609375 6.703125 -8.84375 6.703125 -9.0625 C 6.703125 -9.320312 6.632812 -9.570312 6.5 -9.8125 C 6.363281 -10.0625 6.175781 -10.273438 5.9375 -10.453125 C 5.707031 -10.640625 5.429688 -10.785156 5.109375 -10.890625 C 4.785156 -11.003906 4.441406 -11.0625 4.078125 -11.0625 L 2.5 -11.0625 Z M 1.03125 0 L 1.03125 -12.453125 L 3.96875 -12.453125 C 4.363281 -12.453125 4.804688 -12.390625 5.296875 -12.265625 C 5.796875 -12.140625 6.257812 -11.9375 6.6875 -11.65625 C 7.113281 -11.382812 7.46875 -11.035156 7.75 -10.609375 C 8.03125 -10.179688 8.171875 -9.664062 8.171875 -9.0625 C 8.171875 -8.175781 7.945312 -7.429688 7.5 -6.828125 C 7.0625 -6.234375 6.414062 -5.84375 5.5625 -5.65625 L 8.234375 0 L 6.625 0 L 4.015625 -5.546875 L 2.5 -5.546875 L 2.5 0 Z M 1.03125 0"/></g><g id="i"><path d="M 1.78125 -13.015625 C 2.863281 -11.609375 3.945312 -10.203125 5.03125 -8.796875 C 6.113281 -7.390625 7.195312 -5.976562 8.28125 -4.5625 C 9.375 -5.976562 10.457031 -7.390625 11.53125 -8.796875 C 12.613281 -10.203125 13.703125 -11.609375 14.796875 -13.015625 L 14.796875 0 L 13.3125 0 L 13.3125 -8.359375 C 13.332031 -8.453125 13.34375 -8.546875 13.34375 -8.640625 C 13.351562 -8.734375 13.363281 -8.828125 13.375 -8.921875 C 12.59375 -7.765625 11.757812 -6.632812 10.875 -5.53125 C 10 -4.4375 9.132812 -3.332031 8.28125 -2.21875 C 7.488281 -3.257812 6.695312 -4.296875 5.90625 -5.328125 C 5.113281 -6.359375 4.316406 -7.398438 3.515625 -8.453125 L 3.203125 -8.921875 C 3.210938 -8.828125 3.21875 -8.734375 3.21875 -8.640625 C 3.226562 -8.546875 3.238281 -8.453125 3.25 -8.359375 L 3.25 0 L 1.78125 0 Z M 1.78125 -13.015625"/></g><g id="j"><path d="M 6.75 -9.15625 L 6.59375 -9.75 C 6.425781 -9.15625 6.21875 -8.578125 5.96875 -8.015625 C 5.71875 -7.460938 5.476562 -6.898438 5.25 -6.328125 L 7.953125 -6.328125 C 7.742188 -6.804688 7.539062 -7.28125 7.34375 -7.75 C 7.15625 -8.21875 6.957031 -8.6875 6.75 -9.15625 Z M 12.109375 0 L 10.640625 0 C 10.296875 -0.820312 9.945312 -1.644531 9.59375 -2.46875 C 9.238281 -3.289062 8.890625 -4.109375 8.546875 -4.921875 L 4.640625 -4.921875 C 4.296875 -4.109375 3.945312 -3.289062 3.59375 -2.46875 C 3.25 -1.644531 2.90625 -0.820312 2.5625 0 L 1.078125 0 C 2.003906 -2.175781 2.921875 -4.34375 3.828125 -6.5 C 4.742188 -8.664062 5.664062 -10.835938 6.59375 -13.015625 C 7.519531 -10.835938 8.4375 -8.664062 9.34375 -6.5 C 10.257812 -4.34375 11.179688 -2.175781 12.109375 0 Z M 12.109375 0"/></g><g id="k"><path d="M 9.828125 -12.453125 L 9.828125 -11.046875 L 5.671875 -11.046875 L 5.671875 0 L 4.203125 0 L 4.203125 -11.046875 L 0 -11.046875 L 0 -12.453125 Z M 9.828125 -12.453125"/></g><g id="l"><path d="M 9.890625 -1.921875 L 10.6875 -0.75 C 10.238281 -0.488281 9.765625 -0.28125 9.265625 -0.125 C 8.765625 0.03125 8.242188 0.117188 7.703125 0.140625 C 7.703125 0.304688 7.726562 0.4375 7.78125 0.53125 C 7.832031 0.632812 7.894531 0.71875 7.96875 0.78125 C 8.039062 0.851562 8.117188 0.910156 8.203125 0.953125 C 8.296875 0.992188 8.378906 1.035156 8.453125 1.078125 C 8.691406 1.273438 8.863281 1.488281 8.96875 1.71875 C 9.070312 1.957031 9.125 2.226562 9.125 2.53125 C 9.125 2.769531 9.082031 3.003906 9 3.234375 C 8.925781 3.472656 8.804688 3.679688 8.640625 3.859375 C 8.484375 4.035156 8.289062 4.175781 8.0625 4.28125 C 7.832031 4.394531 7.5625 4.453125 7.25 4.453125 C 6.851562 4.453125 6.484375 4.335938 6.140625 4.109375 C 5.804688 3.890625 5.5625 3.554688 5.40625 3.109375 C 5.53125 3.035156 5.664062 2.960938 5.8125 2.890625 C 5.957031 2.828125 6.09375 2.757812 6.21875 2.6875 C 6.28125 2.875 6.390625 3.03125 6.546875 3.15625 C 6.703125 3.28125 6.894531 3.34375 7.125 3.34375 C 7.414062 3.34375 7.632812 3.25 7.78125 3.0625 C 7.9375 2.875 8.015625 2.632812 8.015625 2.34375 C 8.015625 2.101562 7.945312 1.914062 7.8125 1.78125 C 7.6875 1.644531 7.550781 1.523438 7.40625 1.421875 C 7.257812 1.316406 7.117188 1.203125 6.984375 1.078125 C 6.859375 0.960938 6.796875 0.804688 6.796875 0.609375 L 6.796875 0.109375 C 5.984375 0.0234375 5.234375 -0.191406 4.546875 -0.546875 C 3.859375 -0.898438 3.253906 -1.359375 2.734375 -1.921875 C 2.222656 -2.492188 1.820312 -3.144531 1.53125 -3.875 C 1.25 -4.613281 1.109375 -5.390625 1.109375 -6.203125 C 1.109375 -7.078125 1.269531 -7.898438 1.59375 -8.671875 C 1.925781 -9.453125 2.378906 -10.128906 2.953125 -10.703125 C 3.535156 -11.285156 4.210938 -11.742188 4.984375 -12.078125 C 5.753906 -12.421875 6.578125 -12.59375 7.453125 -12.59375 C 8.054688 -12.59375 8.625 -12.515625 9.15625 -12.359375 C 9.695312 -12.203125 10.210938 -11.984375 10.703125 -11.703125 C 10.578125 -11.492188 10.441406 -11.289062 10.296875 -11.09375 C 10.148438 -10.90625 10.015625 -10.710938 9.890625 -10.515625 C 9.515625 -10.722656 9.125 -10.882812 8.71875 -11 C 8.320312 -11.125 7.898438 -11.1875 7.453125 -11.1875 C 6.773438 -11.1875 6.140625 -11.054688 5.546875 -10.796875 C 4.960938 -10.535156 4.445312 -10.175781 4 -9.71875 C 3.5625 -9.257812 3.210938 -8.726562 2.953125 -8.125 C 2.703125 -7.519531 2.578125 -6.878906 2.578125 -6.203125 C 2.578125 -5.523438 2.703125 -4.882812 2.953125 -4.28125 C 3.210938 -3.675781 3.5625 -3.148438 4 -2.703125 C 4.445312 -2.265625 4.960938 -1.914062 5.546875 -1.65625 C 6.140625 -1.394531 6.773438 -1.265625 7.453125 -1.265625 C 8.328125 -1.265625 9.140625 -1.484375 9.890625 -1.921875 Z M 9.890625 -1.921875"/></g><g id="m"><path d="M 1.109375 -6.203125 C 1.109375 -7.066406 1.269531 -7.882812 1.59375 -8.65625 C 1.925781 -9.4375 2.378906 -10.117188 2.953125 -10.703125 C 3.535156 -11.285156 4.210938 -11.742188 4.984375 -12.078125 C 5.753906 -12.421875 6.578125 -12.59375 7.453125 -12.59375 C 8.316406 -12.59375 9.132812 -12.421875 9.90625 -12.078125 C 10.6875 -11.742188 11.363281 -11.285156 11.9375 -10.703125 C 12.519531 -10.117188 12.976562 -9.4375 13.3125 -8.65625 C 13.65625 -7.882812 13.828125 -7.066406 13.828125 -6.203125 C 13.828125 -5.328125 13.65625 -4.503906 13.3125 -3.734375 C 12.976562 -2.960938 12.519531 -2.289062 11.9375 -1.71875 C 11.363281 -1.144531 10.6875 -0.691406 9.90625 -0.359375 C 9.132812 -0.0234375 8.316406 0.140625 7.453125 0.140625 C 6.578125 0.140625 5.753906 -0.0234375 4.984375 -0.359375 C 4.210938 -0.691406 3.535156 -1.144531 2.953125 -1.71875 C 2.378906 -2.289062 1.925781 -2.960938 1.59375 -3.734375 C 1.269531 -4.503906 1.109375 -5.328125 1.109375 -6.203125 Z M 2.578125 -6.203125 C 2.578125 -5.515625 2.703125 -4.867188 2.953125 -4.265625 C 3.210938 -3.671875 3.5625 -3.148438 4 -2.703125 C 4.445312 -2.265625 4.96875 -1.914062 5.5625 -1.65625 C 6.15625 -1.394531 6.789062 -1.265625 7.46875 -1.265625 C 8.144531 -1.265625 8.78125 -1.394531 9.375 -1.65625 C 9.96875 -1.914062 10.484375 -2.265625 10.921875 -2.703125 C 11.367188 -3.148438 11.71875 -3.671875 11.96875 -4.265625 C 12.226562 -4.867188 12.359375 -5.515625 12.359375 -6.203125 C 12.359375 -6.890625 12.226562 -7.53125 11.96875 -8.125 C 11.71875 -8.726562 11.367188 -9.253906 10.921875 -9.703125 C 10.484375 -10.160156 9.96875 -10.519531 9.375 -10.78125 C 8.78125 -11.039062 8.144531 -11.171875 7.46875 -11.171875 C 6.789062 -11.171875 6.15625 -11.039062 5.5625 -10.78125 C 4.96875 -10.519531 4.445312 -10.160156 4 -9.703125 C 3.5625 -9.253906 3.210938 -8.726562 2.953125 -8.125 C 2.703125 -7.53125 2.578125 -6.890625 2.578125 -6.203125 Z M 7.8125 -14.546875 C 7.632812 -14.742188 7.476562 -14.867188 7.34375 -14.921875 C 7.207031 -14.984375 7.054688 -15.015625 6.890625 -15.015625 C 6.722656 -15.015625 6.53125 -14.957031 6.3125 -14.84375 C 6.101562 -14.738281 5.984375 -14.523438 5.953125 -14.203125 L 5.15625 -14.25 C 5.164062 -14.488281 5.222656 -14.703125 5.328125 -14.890625 C 5.429688 -15.085938 5.5625 -15.253906 5.71875 -15.390625 C 5.875 -15.535156 6.039062 -15.640625 6.21875 -15.703125 C 6.40625 -15.773438 6.585938 -15.8125 6.765625 -15.8125 C 7.035156 -15.8125 7.28125 -15.757812 7.5 -15.65625 C 7.726562 -15.550781 7.941406 -15.410156 8.140625 -15.234375 C 8.316406 -15.035156 8.472656 -14.90625 8.609375 -14.84375 C 8.742188 -14.789062 8.894531 -14.765625 9.0625 -14.765625 C 9.144531 -14.765625 9.234375 -14.773438 9.328125 -14.796875 C 9.429688 -14.828125 9.53125 -14.867188 9.625 -14.921875 C 9.726562 -14.984375 9.8125 -15.066406 9.875 -15.171875 C 9.9375 -15.273438 9.976562 -15.410156 10 -15.578125 L 10.8125 -15.53125 C 10.789062 -15.289062 10.726562 -15.070312 10.625 -14.875 C 10.519531 -14.6875 10.390625 -14.523438 10.234375 -14.390625 C 10.078125 -14.265625 9.90625 -14.164062 9.71875 -14.09375 C 9.539062 -14.019531 9.363281 -13.984375 9.1875 -13.984375 C 8.914062 -13.984375 8.671875 -14.035156 8.453125 -14.140625 C 8.234375 -14.242188 8.019531 -14.378906 7.8125 -14.546875 Z M 7.8125 -14.546875"/></g><g id="n"><path d="M 1.234375 0 L 1.234375 -12.453125 L 8.890625 -12.453125 L 8.890625 -11.046875 L 2.703125 -11.046875 L 2.703125 -6.96875 L 8.203125 -6.96875 L 8.203125 -5.5625 L 2.703125 -5.5625 L 2.703125 -1.40625 L 9.140625 -1.40625 L 9.140625 0 Z M 1.234375 0"/></g><g id="o"><path d="M 7.984375 -11.21875 C 7.835938 -11.039062 7.695312 -10.863281 7.5625 -10.6875 C 7.425781 -10.507812 7.285156 -10.332031 7.140625 -10.15625 C 7.046875 -10.25 6.921875 -10.351562 6.765625 -10.46875 C 6.617188 -10.582031 6.445312 -10.6875 6.25 -10.78125 C 6.050781 -10.875 5.832031 -10.953125 5.59375 -11.015625 C 5.351562 -11.078125 5.09375 -11.109375 4.8125 -11.109375 C 4.125 -11.109375 3.613281 -10.910156 3.28125 -10.515625 C 2.957031 -10.128906 2.796875 -9.671875 2.796875 -9.140625 C 2.796875 -8.835938 2.847656 -8.585938 2.953125 -8.390625 C 3.066406 -8.191406 3.21875 -8.023438 3.40625 -7.890625 C 3.59375 -7.753906 3.800781 -7.632812 4.03125 -7.53125 C 4.257812 -7.4375 4.5 -7.347656 4.75 -7.265625 C 5.132812 -7.128906 5.550781 -6.960938 6 -6.765625 C 6.457031 -6.566406 6.878906 -6.316406 7.265625 -6.015625 C 7.648438 -5.710938 7.96875 -5.34375 8.21875 -4.90625 C 8.476562 -4.46875 8.609375 -3.941406 8.609375 -3.328125 C 8.609375 -2.796875 8.507812 -2.316406 8.3125 -1.890625 C 8.113281 -1.460938 7.84375 -1.097656 7.5 -0.796875 C 7.164062 -0.492188 6.773438 -0.257812 6.328125 -0.09375 C 5.878906 0.0625 5.40625 0.140625 4.90625 0.140625 C 4.457031 0.140625 4.019531 0.078125 3.59375 -0.046875 C 3.164062 -0.171875 2.773438 -0.328125 2.421875 -0.515625 C 2.066406 -0.710938 1.75 -0.929688 1.46875 -1.171875 C 1.1875 -1.410156 0.96875 -1.648438 0.8125 -1.890625 L 1.75 -2.8125 C 1.894531 -2.644531 2.070312 -2.46875 2.28125 -2.28125 C 2.5 -2.101562 2.734375 -1.9375 2.984375 -1.78125 C 3.234375 -1.625 3.503906 -1.5 3.796875 -1.40625 C 4.097656 -1.3125 4.421875 -1.265625 4.765625 -1.265625 C 5.078125 -1.265625 5.375 -1.304688 5.65625 -1.390625 C 5.9375 -1.484375 6.1875 -1.613281 6.40625 -1.78125 C 6.625 -1.957031 6.796875 -2.175781 6.921875 -2.4375 C 7.054688 -2.695312 7.125 -3 7.125 -3.34375 C 7.125 -3.8125 7.007812 -4.191406 6.78125 -4.484375 C 6.550781 -4.785156 6.265625 -5.035156 5.921875 -5.234375 C 5.585938 -5.429688 5.238281 -5.585938 4.875 -5.703125 C 4.507812 -5.828125 4.1875 -5.941406 3.90625 -6.046875 C 3.695312 -6.128906 3.441406 -6.238281 3.140625 -6.375 C 2.847656 -6.519531 2.566406 -6.710938 2.296875 -6.953125 C 2.035156 -7.203125 1.804688 -7.503906 1.609375 -7.859375 C 1.421875 -8.222656 1.320312 -8.664062 1.3125 -9.1875 C 1.300781 -9.582031 1.351562 -9.972656 1.46875 -10.359375 C 1.59375 -10.753906 1.789062 -11.109375 2.0625 -11.421875 C 2.332031 -11.742188 2.691406 -12.003906 3.140625 -12.203125 C 3.597656 -12.410156 4.148438 -12.515625 4.796875 -12.515625 C 5.273438 -12.515625 5.769531 -12.429688 6.28125 -12.265625 C 6.789062 -12.097656 7.359375 -11.75 7.984375 -11.21875 Z M 7.984375 -11.21875"/></g><clipPath id="a"><path d="M 91 91 L 284 91 L 284 284 L 91 284 Z M 91 91"/></clipPath><clipPath id="b"><path d="M 72.238281 114.964844 L 260.183594 72.203125 L 302.949219 260.148438 L 115 302.910156 Z M 72.238281 114.964844"/></clipPath><clipPath id="c"><path d="M 72.238281 114.964844 L 260.183594 72.203125 L 302.949219 260.148438 L 115 302.910156 Z M 72.238281 114.964844"/></clipPath></defs><g clip-path="url(#a)"><g clip-path="url(#b)"><g clip-path="url(#c)"><path fill="#E5E7EB" d="M 170.535156 112.589844 C 211.9375 103.167969 253.140625 129.097656 262.558594 170.5 C 271.980469 211.902344 246.054688 253.105469 204.648438 262.527344 C 163.246094 271.945312 122.046875 246.019531 112.625 204.613281 C 103.203125 163.210938 129.132812 122.011719 170.535156 112.589844 Z M 205.613281 266.765625 C 186.277344 271.164062 166.054688 268.355469 148.675781 258.863281 C 135.5625 251.699219 124.703125 241.117188 117.269531 228.261719 L 112.527344 231.007812 C 120.464844 244.730469 132.054688 256.027344 146.046875 263.671875 C 164.601562 273.804688 186.1875 276.800781 206.828125 272.105469 Z M 272.328125 206.058594 C 275.0625 193.570312 275 180.875 272.144531 168.320312 L 266.800781 169.535156 C 269.476562 181.296875 269.535156 193.191406 266.976562 204.886719 C 261.988281 227.664062 247.472656 247.21875 227.148438 258.53125 L 229.8125 263.320312 C 251.507812 251.242188 267.003906 230.371094 272.328125 206.058594 Z M 240.757812 119.054688 C 222.375 104.804688 199.601562 98.582031 176.628906 101.535156 C 173.867188 101.890625 171.082031 102.386719 168.355469 103.007812 L 169.570312 108.351562 C 172.128906 107.769531 174.738281 107.304688 177.328125 106.96875 C 198.84375 104.203125 220.175781 110.03125 237.398438 123.386719 Z M 122.015625 139.617188 L 117.589844 136.382812 C 102.777344 156.664062 97.476562 182.328125 103.042969 206.796875 L 108.386719 205.578125 C 103.171875 182.65625 108.136719 158.613281 122.015625 139.617188 Z M 281.566406 166.175781 C 279.441406 156.832031 275.972656 147.917969 271.261719 139.679688 C 265.304688 129.261719 257.527344 120.140625 248.140625 112.570312 C 225.007812 93.921875 195.148438 87 166.210938 93.585938 L 167.425781 98.925781 C 194.71875 92.714844 222.882812 99.246094 244.699219 116.835938 C 253.550781 123.976562 260.890625 132.578125 266.503906 142.398438 C 270.949219 150.167969 274.21875 158.578125 276.222656 167.390625 C 278.382812 176.886719 279.015625 186.574219 278.105469 196.175781 L 283.558594 196.695312 C 284.527344 186.507812 283.855469 176.242188 281.566406 166.175781 Z M 111.777344 137.421875 C 119.835938 125.226562 130.820312 115.058594 143.539062 108.023438 L 140.886719 103.226562 C 127.398438 110.691406 115.75 121.46875 107.207031 134.402344 C 98.851562 147.03125 93.53125 161.625 91.816406 176.597656 L 97.261719 177.21875 C 98.878906 163.101562 103.898438 149.339844 111.777344 137.421875 Z M 227.722656 275.199219 C 242.625 268.390625 255.640625 257.769531 265.363281 244.480469 L 260.941406 241.246094 C 251.773438 253.78125 239.5 263.796875 225.449219 270.214844 C 219.800781 272.792969 213.851562 274.800781 207.757812 276.1875 C 192.625 279.628906 176.804688 279.148438 162.015625 274.796875 C 146.308594 270.175781 132.113281 261.394531 120.960938 249.40625 C 110.121094 237.75 102.515625 223.335938 98.964844 207.722656 L 93.621094 208.9375 C 97.386719 225.492188 105.453125 240.773438 116.949219 253.136719 C 128.769531 265.847656 143.816406 275.15625 160.464844 280.054688 C 176.152344 284.667969 192.925781 285.179688 208.972656 281.53125 C 215.429688 280.0625 221.738281 277.929688 227.722656 275.199219 Z M 227.722656 275.199219"/></g></g></g><g fill="#03989E"><use x="122.452" y="223.462" xmlns:xlink="http://www.w3.org/1999/xlink" xlink:href="#d" xlink:type="simple" xlink:actuate="onLoad" xlink:show="embed"/></g><g fill="#03989E"><use x="194.147" y="223.462" xmlns:xlink="http://www.w3.org/1999/xlink" xlink:href="#e" xlink:type="simple" xlink:actuate="onLoad" xlink:show="embed"/></g><path fill="#1F2937" d="M 0.015625 176.839844 L 374.984375 176.839844 L 374.984375 197.839844 L 0.015625 197.839844 Z M 0.015625 176.839844"/><g fill="#FF9D8E"><use x="69.425" y="193.813" xmlns:xlink="http://www.w3.org/1999/xlink" xlink:href="#f" xlink:type="simple" xlink:actuate="onLoad" xlink:show="embed"/></g><g fill="#FF9D8E"><use x="89.986" y="193.813" xmlns:xlink="http://www.w3.org/1999/xlink" xlink:href="#g" xlink:type="simple" xlink:actuate="onLoad" xlink:show="embed"/></g><g fill="#FF9D8E"><use x="115.041" y="193.813" xmlns:xlink="http://www.w3.org/1999/xlink" xlink:href="#h" xlink:type="simple" xlink:actuate="onLoad" xlink:show="embed"/></g><g fill="#FF9D8E"><use x="134.393" y="193.813" xmlns:xlink="http://www.w3.org/1999/xlink" xlink:href="#i" xlink:type="simple" xlink:actuate="onLoad" xlink:show="embed"/></g><g fill="#FF9D8E"><use x="161.171" y="193.813" xmlns:xlink="http://www.w3.org/1999/xlink" xlink:href="#j" xlink:type="simple" xlink:actuate="onLoad" xlink:show="embed"/></g><g fill="#FF9D8E"><use x="184.449" y="193.813" xmlns:xlink="http://www.w3.org/1999/xlink" xlink:href="#k" xlink:type="simple" xlink:actuate="onLoad" xlink:show="embed"/></g><g fill="#FF9D8E"><use x="204.406" y="193.813" xmlns:xlink="http://www.w3.org/1999/xlink" xlink:href="#j" xlink:type="simple" xlink:actuate="onLoad" xlink:show="embed"/></g><g fill="#FF9D8E"><use x="227.684" y="193.813" xmlns:xlink="http://www.w3.org/1999/xlink" xlink:href="#l" xlink:type="simple" xlink:actuate="onLoad" xlink:show="embed"/></g><g fill="#FF9D8E"><use x="249.719" y="193.813" xmlns:xlink="http://www.w3.org/1999/xlink" xlink:href="#m" xlink:type="simple" xlink:actuate="onLoad" xlink:show="embed"/></g><g fill="#FF9D8E"><use x="274.756" y="193.813" xmlns:xlink="http://www.w3.org/1999/xlink" xlink:href="#n" xlink:type="simple" xlink:actuate="onLoad" xlink:show="embed"/></g><g fill="#FF9D8E"><use x="295.565" y="193.813" xmlns:xlink="http://www.w3.org/1999/xlink" xlink:href="#o" xlink:type="simple" xlink:actuate="onLoad" xlink:show="embed"/></g></svg>