<svg xmlns="http://www.w3.org/2000/svg" width="375" viewBox="0 0 375 375" height="375" version="1.0"><defs><clipPath id="a"><path d="M 59 61 L 317 61 L 317 315.222656 L 59 315.222656 Z M 59 61"/></clipPath></defs><g clip-path="url(#a)"><path d="M 315.140625 179.226562 L 291.15625 145.761719 C 290.277344 144.53125 289.03125 143.695312 287.660156 143.292969 L 287.660156 143.28125 L 224.042969 124.519531 C 232.394531 113.839844 239.089844 101.964844 239.089844 91.21875 C 239.089844 77.65625 231.257812 66.617188 219.128906 63.101562 C 208.015625 59.867188 196.414062 63.417969 187.78125 72.183594 C 179.035156 63.394531 167.359375 59.886719 156.320312 63.128906 C 144.292969 66.664062 136.53125 77.691406 136.53125 91.21875 C 136.53125 101.964844 143.230469 113.839844 151.582031 124.519531 L 87.964844 143.28125 L 87.964844 143.292969 C 86.59375 143.695312 85.34375 144.53125 84.464844 145.761719 L 60.484375 179.226562 C 58.023438 182.664062 59.386719 187.507812 63.289062 189.140625 L 83.234375 197.515625 L 83.234375 274.242188 C 83.234375 277.035156 85 279.53125 87.628906 280.464844 L 185.609375 315.003906 C 187.015625 315.496094 188.554688 315.503906 189.996094 315.003906 L 287.976562 280.464844 C 290.613281 279.53125 292.371094 277.035156 292.371094 274.242188 L 292.371094 197.515625 L 312.316406 189.140625 C 316.238281 187.496094 317.589844 182.65625 315.140625 179.226562 Z M 160.046875 75.769531 C 166.949219 73.746094 176 76.542969 182.277344 86.277344 C 184.878906 90.320312 190.8125 90.296875 193.390625 86.234375 C 200.050781 75.714844 209.457031 74.027344 215.460938 75.757812 C 222.003906 77.65625 225.90625 83.429688 225.90625 91.210938 C 225.90625 107.019531 201.320312 131.257812 187.816406 142.773438 C 174.3125 131.257812 149.726562 107.019531 149.726562 91.210938 C 149.726562 83.441406 153.578125 77.667969 160.046875 75.769531 Z M 183.71875 156.484375 C 186.109375 158.390625 189.511719 158.390625 191.914062 156.484375 C 194.136719 154.726562 204.289062 146.472656 214.609375 135.476562 L 264.382812 150.15625 L 187.816406 177.144531 L 111.25 150.15625 L 161.023438 135.476562 C 171.34375 146.472656 181.496094 154.726562 183.71875 156.484375 Z M 92.316406 157.457031 L 177.25 187.390625 L 157.453125 214.375 L 76.035156 180.175781 Z M 96.429688 203.054688 L 157.136719 228.550781 C 159.949219 229.726562 163.203125 228.832031 165.003906 226.371094 L 181.222656 204.265625 L 181.222656 299.464844 L 96.429688 269.574219 Z M 279.203125 269.574219 L 194.410156 299.464844 L 194.410156 204.265625 L 210.628906 226.371094 C 212.429688 228.820312 215.683594 229.726562 218.496094 228.550781 L 279.203125 203.054688 Z M 218.1875 214.382812 L 198.390625 187.402344 L 283.324219 157.46875 L 299.613281 180.195312 Z M 218.1875 214.382812"/></g></svg>